<svg xmlns="http://www.w3.org/2000/svg" id="canvas" viewBox="390.360 495.128 1682.110 254.683"><path d="M 405.13,527.01 C 404.67 527.71, 404.49 528.30, 404.31 530.44 C 404.14 532.58, 404.30 533.92, 404.25 537.74 C 404.19 541.55, 404.25 543.92, 404.03 549.51 C 403.82 555.09, 403.62 558.49, 403.16 565.66 C 402.69 572.83, 402.18 577.06, 401.70 585.36 C 401.22 593.66, 401.08 598.35, 400.74 607.16 C 400.39 615.97, 400.21 620.76, 399.98 629.41 C 399.74 638.06, 399.71 642.49, 399.55 650.40 C 399.39 658.32, 399.42 662.23, 399.18 668.97 C 398.94 675.71, 398.60 678.86, 398.34 684.10 C 398.09 689.34, 397.94 691.72, 397.89 695.18 C 397.84 698.64, 397.97 699.56, 398.10 701.40 C 398.24 703.24, 398.30 703.77, 398.57 704.37 C 398.85 704.98, 399.14 705.00, 399.47 704.42 C 399.80 703.83, 400.02 703.29, 400.23 701.45 C 400.45 699.60, 400.52 698.66, 400.54 695.20 C 400.56 691.75, 400.28 689.40, 400.33 684.16 C 400.38 678.92, 400.67 675.76, 400.81 669.01 C 400.94 662.27, 400.89 658.34, 401.00 650.43 C 401.11 642.52, 401.13 638.09, 401.36 629.45 C 401.59 620.81, 401.78 616.02, 402.16 607.22 C 402.53 598.42, 402.69 593.74, 403.26 585.45 C 403.83 577.17, 404.37 572.96, 405.01 565.81 C 405.66 558.65, 405.95 555.26, 406.48 549.67 C 407.00 544.08, 407.39 541.72, 407.63 537.87 C 407.88 534.02, 407.91 532.60, 407.71 530.42 C 407.50 528.24, 407.13 527.64, 406.62 526.95 C 406.10 526.27, 405.59 526.32, 405.13 527.01" style="stroke: blue; fill: blue;"/><path d="M 436.82,553.84 C 436.64 554.47, 436.86 554.48, 437.10 556.38 C 437.34 558.27, 437.61 559.40, 438.01 563.32 C 438.41 567.24, 438.84 569.93, 439.09 575.98 C 439.35 582.04, 439.34 586.10, 439.27 593.59 C 439.21 601.09, 439.06 605.57, 438.77 613.46 C 438.47 621.35, 438.19 625.48, 437.79 633.04 C 437.39 640.60, 437.16 644.41, 436.77 651.27 C 436.37 658.13, 436.22 661.55, 435.81 667.35 C 435.40 673.15, 435.19 675.76, 434.73 680.28 C 434.27 684.81, 433.85 686.85, 433.52 689.97 C 433.18 693.09, 433.17 694.14, 433.06 695.89 C 432.95 697.64, 432.94 697.91, 432.98 698.72 C 433.02 699.54, 433.06 699.68, 433.25 699.95 C 433.44 700.22, 433.66 700.25, 433.93 700.07 C 434.20 699.90, 434.23 699.84, 434.60 699.07 C 434.98 698.31, 435.43 698.04, 435.81 696.27 C 436.19 694.50, 436.26 693.40, 436.50 690.24 C 436.74 687.08, 436.76 685.01, 436.99 680.46 C 437.23 675.90, 437.39 673.28, 437.67 667.46 C 437.96 661.64, 438.08 658.22, 438.41 651.36 C 438.75 644.49, 438.96 640.69, 439.35 633.12 C 439.75 625.56, 440.03 621.42, 440.39 613.53 C 440.75 605.63, 440.91 601.14, 441.13 593.63 C 441.35 586.11, 441.43 582.06, 441.47 575.94 C 441.51 569.82, 441.57 567.10, 441.32 563.05 C 441.06 558.99, 440.85 557.62, 440.19 555.66 C 439.53 553.70, 438.69 553.62, 438.01 553.25 C 437.34 552.89, 437.01 553.22, 436.82 553.84" style="stroke: blue; fill: blue;"/><path d="M 393.89,629.39 C 394.35 629.68, 394.46 629.71, 395.75 629.63 C 397.05 629.56, 397.81 629.75, 400.37 629.00 C 402.94 628.24, 404.61 627.26, 408.58 625.86 C 412.55 624.45, 415.31 623.65, 420.23 621.97 C 425.16 620.28, 427.87 619.33, 433.19 617.43 C 438.52 615.53, 441.48 614.51, 446.87 612.47 C 452.25 610.43, 455.20 609.23, 460.12 607.22 C 465.04 605.21, 467.43 604.37, 471.46 602.41 C 475.50 600.46, 477.39 599.58, 480.29 597.44 C 483.20 595.30, 484.34 594.10, 486.00 591.72 C 487.67 589.34, 488.12 587.93, 488.62 585.55 C 489.13 583.18, 489.10 581.98, 488.52 579.86 C 487.94 577.75, 487.34 576.52, 485.72 574.99 C 484.10 573.46, 482.91 572.56, 480.42 572.20 C 477.93 571.84, 476.25 571.80, 473.27 573.21 C 470.30 574.61, 468.65 575.83, 465.54 579.25 C 462.44 582.66, 460.64 584.94, 457.73 590.28 C 454.83 595.62, 453.31 599.09, 451.02 605.95 C 448.73 612.80, 447.66 617.07, 446.30 624.55 C 444.94 632.03, 444.46 636.30, 444.21 643.35 C 443.96 650.40, 444.16 654.01, 445.04 659.81 C 445.93 665.61, 446.70 668.25, 448.63 672.35 C 450.55 676.45, 451.80 678.11, 454.67 680.30 C 457.53 682.49, 459.37 683.05, 462.96 683.29 C 466.56 683.53, 468.59 683.28, 472.64 681.51 C 476.69 679.74, 478.80 678.44, 483.20 674.43 C 487.61 670.42, 489.96 667.79, 494.67 661.45 C 499.38 655.11, 501.87 651.17, 506.73 642.73 C 511.59 634.30, 514.26 629.11, 518.97 619.27 C 523.67 609.44, 526.07 603.65, 530.25 593.56 C 534.43 583.47, 536.40 578.06, 539.88 568.83 C 543.35 559.60, 544.95 555.03, 547.62 547.40 C 550.30 539.78, 551.45 536.35, 553.27 530.70 C 555.10 525.06, 555.98 522.81, 556.74 519.19 C 557.51 515.58, 557.65 514.38, 557.11 512.64 C 556.57 510.90, 555.69 510.44, 554.03 510.48 C 552.37 510.52, 550.95 510.65, 548.80 512.84 C 546.64 515.03, 545.74 516.83, 543.27 521.43 C 540.80 526.03, 539.10 528.84, 536.44 535.83 C 533.79 542.83, 532.41 547.24, 530.00 556.41 C 527.59 565.57, 526.38 571.05, 524.40 581.65 C 522.42 592.25, 521.40 598.56, 520.09 609.40 C 518.78 620.25, 518.33 626.18, 517.84 635.86 C 517.34 645.53, 517.21 650.19, 517.60 657.79 C 517.99 665.38, 518.38 668.75, 519.80 673.82 C 521.22 678.89, 522.25 680.57, 524.70 683.13 C 527.15 685.69, 528.76 686.55, 532.04 686.61 C 535.32 686.68, 537.38 685.90, 541.11 683.44 C 544.83 680.97, 546.73 679.21, 550.67 674.29 C 554.60 669.37, 556.63 666.28, 560.80 658.83 C 564.97 651.38, 567.25 646.57, 571.50 637.03 C 575.74 627.49, 578.03 621.75, 582.04 611.13 C 586.05 600.51, 588.01 594.47, 591.56 583.94 C 595.11 573.41, 596.98 567.79, 599.80 558.49 C 602.61 549.19, 603.79 544.65, 605.65 537.43 C 607.52 530.21, 608.17 527.20, 609.11 522.37 C 610.06 517.55, 610.62 515.66, 610.40 513.32 C 610.17 510.97, 609.36 510.30, 607.99 510.66 C 606.61 511.01, 605.36 511.86, 603.51 515.10 C 601.65 518.35, 600.77 520.84, 598.71 526.88 C 596.64 532.93, 595.48 536.95, 593.19 545.32 C 590.91 553.69, 589.52 558.81, 587.28 568.72 C 585.05 578.64, 583.74 584.52, 582.03 594.90 C 580.32 605.28, 579.55 611.05, 578.74 620.64 C 577.92 630.24, 577.66 634.92, 577.95 642.88 C 578.23 650.84, 578.74 654.48, 580.16 660.44 C 581.57 666.39, 582.54 668.88, 585.01 672.65 C 587.48 676.43, 589.09 677.88, 592.51 679.31 C 595.92 680.74, 598.05 680.75, 602.09 679.79 C 606.13 678.83, 608.34 677.62, 612.71 674.51 C 617.09 671.39, 619.58 669.09, 623.96 664.23 C 628.35 659.37, 630.54 656.26, 634.63 650.21 C 638.71 644.16, 640.77 640.53, 644.39 633.99 C 648.00 627.45, 649.85 623.94, 652.69 617.52 C 655.53 611.09, 656.66 607.69, 658.59 601.85 C 660.52 596.00, 661.18 593.07, 662.33 588.29 C 663.49 583.51, 664.14 581.34, 664.37 577.96 C 664.59 574.58, 664.35 573.21, 663.46 571.39 C 662.57 569.56, 661.62 568.92, 659.91 568.81 C 658.20 568.70, 656.94 568.98, 654.91 570.82 C 652.88 572.67, 651.95 574.30, 649.77 578.05 C 647.58 581.79, 646.29 584.13, 643.99 589.53 C 641.68 594.94, 640.28 598.36, 638.25 605.08 C 636.23 611.80, 635.13 615.99, 633.86 623.13 C 632.59 630.27, 632.09 634.40, 631.89 640.78 C 631.69 647.15, 631.93 650.11, 632.88 655.01 C 633.83 659.91, 634.65 662.07, 636.65 665.27 C 638.65 668.47, 640.02 669.74, 642.88 671.02 C 645.75 672.30, 647.65 672.43, 650.98 671.68 C 654.31 670.94, 656.21 669.93, 659.54 667.31 C 662.87 664.68, 664.54 662.80, 667.63 658.57 C 670.71 654.35, 672.44 651.69, 674.94 646.19 C 677.45 640.69, 678.64 637.27, 680.17 631.06 C 681.70 624.85, 682.07 621.32, 682.59 615.13 C 683.11 608.95, 682.96 605.66, 682.77 600.12 C 682.57 594.59, 682.18 591.81, 681.60 587.45 C 681.01 583.09, 680.54 581.24, 679.82 578.31 C 679.10 575.38, 678.62 574.44, 678.00 572.81 C 677.38 571.19, 677.09 570.87, 676.73 570.18 C 676.37 569.49, 676.31 569.58, 676.19 569.36 C 676.07 569.14, 676.26 569.21, 676.13 569.08 C 676.01 568.94, 675.82 568.65, 675.58 568.68 C 675.34 568.71, 675.11 568.82, 674.92 569.23 C 674.74 569.65, 674.58 569.88, 674.67 570.77 C 674.75 571.65, 674.91 571.98, 675.33 573.65 C 675.75 575.32, 675.99 576.26, 676.76 579.10 C 677.53 581.94, 678.39 583.61, 679.17 587.84 C 679.95 592.06, 680.38 594.79, 680.67 600.22 C 680.97 605.64, 681.13 608.90, 680.65 614.98 C 680.16 621.05, 679.78 624.52, 678.24 630.58 C 676.71 636.64, 675.51 639.98, 672.99 645.28 C 670.47 650.58, 668.68 653.14, 665.64 657.08 C 662.59 661.03, 660.85 662.70, 657.77 665.01 C 654.70 667.32, 653.02 667.98, 650.28 668.64 C 647.53 669.30, 646.36 669.25, 644.05 668.30 C 641.75 667.36, 640.59 666.65, 638.76 663.91 C 636.94 661.17, 635.94 659.21, 634.94 654.59 C 633.93 649.97, 633.61 647.06, 633.75 640.83 C 633.89 634.60, 634.37 630.48, 635.64 623.45 C 636.91 616.42, 638.01 612.25, 640.11 605.66 C 642.21 599.07, 643.68 595.69, 646.15 590.51 C 648.62 585.32, 650.17 583.14, 652.46 579.73 C 654.75 576.31, 656.08 575.23, 657.59 573.43 C 659.10 571.63, 659.28 570.99, 660.02 570.74 C 660.76 570.49, 660.98 570.78, 661.28 572.19 C 661.58 573.59, 661.74 574.64, 661.52 577.76 C 661.30 580.89, 661.13 583.11, 660.19 587.82 C 659.26 592.52, 658.65 595.48, 656.84 601.29 C 655.03 607.09, 653.93 610.46, 651.15 616.84 C 648.37 623.22, 646.53 626.71, 642.93 633.18 C 639.34 639.66, 637.26 643.27, 633.17 649.21 C 629.08 655.15, 626.84 658.20, 622.49 662.88 C 618.13 667.56, 615.59 669.72, 611.39 672.62 C 607.19 675.51, 605.10 676.47, 601.50 677.36 C 597.91 678.26, 596.37 678.27, 593.41 677.10 C 590.44 675.93, 589.03 674.94, 586.69 671.53 C 584.36 668.12, 583.22 665.79, 581.74 660.05 C 580.26 654.31, 579.66 650.68, 579.31 642.82 C 578.95 634.96, 579.18 630.29, 579.96 620.74 C 580.75 611.20, 581.50 605.44, 583.23 595.10 C 584.95 584.75, 586.27 578.89, 588.57 569.02 C 590.88 559.15, 592.31 554.04, 594.75 545.76 C 597.20 537.49, 598.54 533.51, 600.81 527.65 C 603.08 521.79, 604.55 519.67, 606.10 516.48 C 607.65 513.28, 608.10 512.32, 608.55 511.69 C 608.99 511.06, 608.58 511.23, 608.32 513.30 C 608.06 515.37, 608.05 517.27, 607.24 522.03 C 606.44 526.79, 606.00 529.87, 604.29 537.09 C 602.57 544.32, 601.41 548.85, 598.66 558.15 C 595.90 567.44, 594.05 573.07, 590.51 583.58 C 586.98 594.10, 585.01 600.15, 580.98 610.73 C 576.94 621.31, 574.64 627.04, 570.33 636.50 C 566.03 645.97, 563.69 650.76, 559.45 658.06 C 555.21 665.36, 553.06 668.36, 549.12 673.02 C 545.18 677.67, 543.15 679.15, 539.74 681.35 C 536.33 683.54, 534.73 683.96, 532.05 684.01 C 529.36 684.05, 528.42 683.70, 526.31 681.57 C 524.19 679.43, 522.95 678.10, 521.49 673.33 C 520.02 668.55, 519.48 665.19, 519.00 657.70 C 518.51 650.22, 518.60 645.55, 519.05 635.92 C 519.50 626.28, 519.93 620.35, 521.24 609.54 C 522.55 598.74, 523.57 592.43, 525.60 581.88 C 527.62 571.32, 528.86 565.85, 531.37 556.78 C 533.88 547.70, 535.32 543.32, 538.16 536.51 C 540.99 529.71, 542.88 526.99, 545.54 522.75 C 548.21 518.51, 549.72 517.41, 551.50 515.30 C 553.27 513.20, 553.64 512.70, 554.40 512.23 C 555.16 511.77, 555.30 511.67, 555.31 512.97 C 555.32 514.26, 555.17 515.26, 554.44 518.71 C 553.71 522.15, 553.28 524.56, 551.66 530.21 C 550.04 535.87, 548.94 539.32, 546.36 546.96 C 543.78 554.61, 542.20 559.19, 538.77 568.42 C 535.34 577.65, 533.37 583.05, 529.20 593.12 C 525.02 603.19, 522.62 608.97, 517.89 618.76 C 513.17 628.54, 510.47 633.71, 505.57 642.05 C 500.66 650.39, 498.11 654.29, 493.36 660.46 C 488.61 666.62, 486.17 669.13, 481.82 672.88 C 477.48 676.62, 475.38 677.63, 471.64 679.16 C 467.91 680.69, 466.23 680.72, 463.14 680.53 C 460.05 680.35, 458.71 680.07, 456.20 678.24 C 453.70 676.41, 452.46 675.14, 450.60 671.40 C 448.74 667.65, 447.83 665.11, 446.90 659.52 C 445.96 653.92, 445.71 650.34, 445.92 643.41 C 446.14 636.47, 446.60 632.23, 447.97 624.85 C 449.34 617.48, 450.44 613.24, 452.78 606.55 C 455.12 599.85, 456.71 596.44, 459.67 591.38 C 462.63 586.31, 464.56 584.17, 467.59 581.22 C 470.63 578.27, 472.36 577.71, 474.84 576.62 C 477.31 575.53, 478.26 575.59, 479.95 575.78 C 481.64 575.97, 482.23 576.56, 483.29 577.56 C 484.36 578.56, 484.85 579.32, 485.27 580.78 C 485.69 582.23, 485.81 583.04, 485.40 584.85 C 484.98 586.65, 484.58 587.74, 483.21 589.81 C 481.84 591.87, 481.11 593.09, 478.54 595.17 C 475.98 597.26, 474.22 598.22, 470.36 600.22 C 466.51 602.22, 464.12 603.12, 459.27 605.17 C 454.42 607.22, 451.47 608.44, 446.11 610.47 C 440.75 612.50, 437.79 613.51, 432.46 615.30 C 427.12 617.09, 424.41 617.99, 419.43 619.43 C 414.46 620.88, 411.67 621.51, 407.58 622.52 C 403.49 623.53, 401.54 623.65, 398.97 624.49 C 396.41 625.33, 395.87 625.98, 394.76 626.71 C 393.66 627.45, 393.60 627.63, 393.43 628.17 C 393.25 628.70, 393.42 629.10, 393.89 629.39" style="stroke: blue; fill: blue;"/><path d="M 742.10,610.23 C 741.44 610.64, 740.76 610.71, 739.99 612.79 C 739.22 614.87, 739.07 616.31, 738.23 620.64 C 737.40 624.97, 736.99 627.98, 735.80 634.42 C 734.61 640.86, 733.89 645.16, 732.29 652.84 C 730.69 660.53, 729.69 665.18, 727.80 672.85 C 725.90 680.52, 724.63 684.57, 722.82 691.18 C 721.01 697.79, 720.01 700.52, 718.74 705.90 C 717.46 711.28, 716.94 714.05, 716.43 718.08 C 715.91 722.11, 715.95 723.58, 716.16 726.03 C 716.37 728.48, 716.94 729.17, 717.47 730.33 C 718.00 731.49, 718.40 731.61, 718.81 731.85 C 719.22 732.08, 719.42 731.89, 719.52 731.49 C 719.61 731.09, 719.36 730.98, 719.28 729.85 C 719.20 728.72, 719.19 728.16, 719.11 725.85 C 719.03 723.55, 718.57 722.24, 718.87 718.33 C 719.17 714.42, 719.49 711.66, 720.61 706.31 C 721.72 700.97, 722.67 698.22, 724.43 691.61 C 726.19 685.00, 727.46 680.92, 729.39 673.25 C 731.31 665.57, 732.31 660.89, 734.03 653.22 C 735.76 645.54, 736.55 641.26, 737.99 634.87 C 739.43 628.49, 740.22 625.53, 741.24 621.29 C 742.25 617.05, 742.65 615.77, 743.07 613.66 C 743.48 611.55, 743.50 611.43, 743.31 610.75 C 743.12 610.06, 742.76 609.82, 742.10 610.23" style="stroke: blue; fill: blue;"/><path d="M 841.49,504.02 C 840.97 504.48, 840.35 504.33, 840.01 506.54 C 839.67 508.75, 839.79 510.24, 839.79 515.07 C 839.80 519.90, 840.10 523.22, 840.05 530.69 C 840.00 538.16, 839.84 543.13, 839.52 552.42 C 839.20 561.71, 838.94 567.35, 838.44 577.14 C 837.95 586.93, 837.72 592.16, 837.05 601.37 C 836.39 610.58, 835.80 615.13, 835.12 623.19 C 834.45 631.25, 834.19 635.24, 833.69 641.67 C 833.19 648.10, 832.96 650.70, 832.64 655.35 C 832.33 660.00, 831.98 661.99, 832.12 664.91 C 832.26 667.82, 832.76 668.59, 833.35 669.92 C 833.93 671.25, 834.44 671.36, 835.05 671.56 C 835.67 671.76, 836.23 671.19, 836.41 670.92 C 836.58 670.64, 836.12 670.24, 835.94 670.20 C 835.76 670.16, 835.59 670.88, 835.49 670.71 C 835.39 670.55, 835.52 670.55, 835.44 669.36 C 835.36 668.17, 835.23 667.55, 835.09 664.76 C 834.95 661.97, 834.69 660.03, 834.74 655.43 C 834.78 650.83, 834.96 648.20, 835.32 641.78 C 835.67 635.35, 835.90 631.36, 836.51 623.30 C 837.11 615.24, 837.69 610.68, 838.34 601.46 C 838.99 592.25, 839.23 587.01, 839.77 577.21 C 840.30 567.42, 840.58 561.78, 841.03 552.49 C 841.48 543.19, 841.69 538.21, 842.01 530.74 C 842.32 523.27, 842.39 519.92, 842.60 515.13 C 842.82 510.34, 843.08 508.96, 843.09 506.78 C 843.09 504.60, 842.95 504.80, 842.63 504.25 C 842.31 503.69, 842.01 503.56, 841.49 504.02" style="stroke: blue; fill: blue;"/><path d="M 899.52,498.75 C 898.74 499.70, 898.05 501.13, 897.30 503.84 C 896.55 506.56, 896.20 508.70, 895.77 512.34 C 895.33 515.97, 895.26 518.36, 895.12 522.04 C 894.97 525.71, 894.99 527.62, 895.05 530.71 C 895.10 533.80, 895.12 535.33, 895.38 537.50 C 895.64 539.66, 896.00 540.36, 896.33 541.53 C 896.67 542.70, 896.72 542.97, 897.04 543.33 C 897.37 543.69, 897.63 543.70, 897.94 543.32 C 898.26 542.94, 898.41 542.61, 898.61 541.41 C 898.82 540.21, 898.91 539.48, 898.96 537.33 C 899.02 535.18, 898.90 533.69, 898.87 530.66 C 898.84 527.63, 898.67 525.75, 898.81 522.18 C 898.95 518.61, 899.09 516.33, 899.56 512.82 C 900.03 509.30, 900.84 507.35, 901.17 504.61 C 901.49 501.87, 901.53 500.28, 901.20 499.11 C 900.87 497.94, 900.30 497.81, 899.52 498.75" style="stroke: blue; fill: blue;"/><path d="M 930.17,568.21 C 929.62 568.78, 929.45 569.34, 928.98 571.16 C 928.50 572.98, 928.13 574.11, 927.80 577.30 C 927.47 580.50, 927.60 582.58, 927.32 587.15 C 927.04 591.72, 926.84 594.42, 926.38 600.14 C 925.92 605.87, 925.61 609.38, 925.02 615.78 C 924.42 622.18, 923.97 625.90, 923.41 632.15 C 922.84 638.40, 922.63 641.78, 922.21 647.04 C 921.78 652.29, 921.55 654.61, 921.28 658.44 C 921.02 662.27, 920.72 663.98, 920.90 666.19 C 921.08 668.39, 921.61 669.14, 922.20 669.46 C 922.79 669.79, 923.33 669.46, 923.86 667.83 C 924.39 666.19, 924.52 665.03, 924.83 661.28 C 925.14 657.52, 924.77 654.73, 925.40 649.06 C 926.04 643.38, 926.42 639.61, 928.01 632.90 C 929.59 626.18, 930.93 622.16, 933.33 615.48 C 935.73 608.79, 937.23 605.15, 940.02 599.47 C 942.81 593.78, 944.45 591.02, 947.26 587.05 C 950.08 583.08, 951.71 581.71, 954.10 579.61 C 956.48 577.52, 957.47 576.86, 959.18 576.57 C 960.89 576.29, 961.32 576.50, 962.66 578.19 C 964.00 579.89, 964.79 581.23, 965.89 585.04 C 966.99 588.86, 967.54 591.52, 968.14 597.25 C 968.75 602.98, 968.90 606.82, 968.92 613.68 C 968.94 620.54, 968.70 624.79, 968.23 631.55 C 967.77 638.31, 967.31 642.00, 966.60 647.48 C 965.89 652.95, 965.13 655.37, 964.69 658.93 C 964.25 662.48, 964.10 663.89, 964.40 665.25 C 964.70 666.60, 965.29 666.76, 966.20 665.68 C 967.11 664.60, 967.63 663.42, 968.94 659.84 C 970.25 656.26, 970.80 653.55, 972.74 647.79 C 974.68 642.04, 975.77 637.93, 978.64 631.08 C 981.51 624.24, 983.51 619.97, 987.09 613.58 C 990.68 607.20, 992.91 603.81, 996.58 599.14 C 1000.24 594.47, 1002.31 592.52, 1005.43 590.24 C 1008.56 587.95, 1010.02 587.60, 1012.21 587.71 C 1014.40 587.82, 1014.83 588.48, 1016.38 590.80 C 1017.93 593.11, 1018.71 595.00, 1019.97 599.29 C 1021.23 603.57, 1021.88 606.59, 1022.68 612.22 C 1023.48 617.85, 1023.62 621.34, 1023.96 627.44 C 1024.29 633.55, 1024.21 637.17, 1024.36 642.74 C 1024.50 648.32, 1024.58 650.90, 1024.70 655.32 C 1024.82 659.75, 1024.43 661.92, 1024.96 664.85 C 1025.48 667.77, 1026.29 668.61, 1027.32 669.95 C 1028.35 671.28, 1029.19 671.39, 1030.12 671.52 C 1031.06 671.66, 1031.70 671.01, 1031.99 670.63 C 1032.28 670.25, 1031.87 669.76, 1031.56 669.64 C 1031.26 669.51, 1030.92 670.19, 1030.48 670.00 C 1030.04 669.81, 1029.83 669.84, 1029.36 668.71 C 1028.89 667.57, 1028.55 667.01, 1028.11 664.31 C 1027.68 661.61, 1027.49 659.53, 1027.18 655.20 C 1026.86 650.87, 1026.74 648.25, 1026.53 642.67 C 1026.31 637.10, 1026.41 633.48, 1026.11 627.33 C 1025.82 621.18, 1025.75 617.67, 1025.04 611.91 C 1024.34 606.15, 1023.85 603.10, 1022.58 598.54 C 1021.31 593.98, 1020.74 591.77, 1018.69 589.12 C 1016.64 586.47, 1015.24 585.44, 1012.33 585.30 C 1009.41 585.16, 1007.56 585.90, 1004.11 588.44 C 1000.66 590.97, 998.79 593.13, 995.08 597.98 C 991.36 602.84, 989.18 606.24, 985.54 612.71 C 981.89 619.18, 979.90 623.47, 976.86 630.32 C 973.82 637.16, 972.57 641.24, 970.36 646.93 C 968.15 652.62, 966.97 655.14, 965.81 658.77 C 964.65 662.40, 964.51 663.75, 964.54 665.08 C 964.57 666.41, 965.41 666.57, 965.98 665.42 C 966.56 664.26, 966.87 662.85, 967.41 659.30 C 967.95 655.76, 968.13 653.24, 968.68 647.71 C 969.22 642.19, 969.69 638.48, 970.14 631.68 C 970.59 624.87, 970.85 620.62, 970.92 613.69 C 971.00 606.76, 970.95 602.92, 970.50 597.04 C 970.06 591.15, 969.82 588.42, 968.70 584.26 C 967.57 580.10, 966.83 578.24, 964.87 576.22 C 962.90 574.21, 961.36 573.89, 958.86 574.17 C 956.36 574.45, 955.02 575.29, 952.35 577.62 C 949.68 579.95, 948.31 581.64, 945.51 585.84 C 942.71 590.05, 941.13 592.85, 938.35 598.66 C 935.57 604.46, 934.08 608.11, 931.62 614.86 C 929.16 621.61, 927.81 625.65, 926.05 632.41 C 924.30 639.18, 923.80 642.99, 922.84 648.70 C 921.89 654.41, 921.63 657.19, 921.30 660.97 C 920.96 664.76, 920.88 665.94, 921.16 667.63 C 921.45 669.31, 922.18 669.69, 922.70 669.41 C 923.23 669.13, 923.52 668.40, 923.77 666.23 C 924.02 664.07, 923.83 662.39, 923.95 658.58 C 924.07 654.77, 924.08 652.43, 924.37 647.18 C 924.66 641.93, 924.86 638.57, 925.40 632.33 C 925.94 626.09, 926.39 622.37, 927.06 615.98 C 927.72 609.59, 928.07 606.08, 928.71 600.37 C 929.36 594.66, 929.67 591.96, 930.30 587.44 C 930.92 582.93, 931.41 580.95, 931.83 577.78 C 932.25 574.60, 932.41 573.46, 932.39 571.57 C 932.36 569.69, 932.14 569.01, 931.70 568.34 C 931.25 567.66, 930.71 567.65, 930.17 568.21" style="stroke: blue; fill: blue;"/><path d="M 1134.22,517.79 C 1133.74 518.69, 1133.47 519.43, 1133.32 522.25 C 1133.16 525.07, 1133.49 526.78, 1133.45 531.91 C 1133.41 537.03, 1133.55 540.41, 1133.10 547.88 C 1132.65 555.35, 1132.12 560.24, 1131.18 569.27 C 1130.24 578.30, 1129.59 583.68, 1128.42 593.02 C 1127.24 602.37, 1126.59 607.34, 1125.30 616.00 C 1124.01 624.66, 1123.16 628.97, 1121.95 636.32 C 1120.75 643.68, 1120.09 647.14, 1119.27 652.76 C 1118.46 658.38, 1118.16 660.61, 1117.86 664.42 C 1117.57 668.24, 1117.37 669.48, 1117.78 671.82 C 1118.20 674.17, 1118.49 675.07, 1119.93 676.14 C 1121.38 677.21, 1122.67 677.61, 1125.01 677.16 C 1127.34 676.71, 1128.69 675.89, 1131.59 673.88 C 1134.49 671.88, 1135.83 670.39, 1139.52 667.14 C 1143.20 663.88, 1145.48 661.73, 1150.01 657.60 C 1154.54 653.48, 1157.29 650.87, 1162.18 646.52 C 1167.07 642.16, 1169.78 639.69, 1174.45 635.82 C 1179.12 631.95, 1181.62 630.02, 1185.52 627.17 C 1189.43 624.32, 1191.16 623.36, 1193.98 621.57 C 1196.80 619.79, 1197.95 619.34, 1199.63 618.27 C 1201.31 617.19, 1201.66 616.81, 1202.37 616.20 C 1203.09 615.58, 1203.09 615.52, 1203.21 615.20 C 1203.32 614.88, 1203.26 614.72, 1202.93 614.60 C 1202.60 614.49, 1202.52 614.39, 1201.57 614.61 C 1200.62 614.84, 1200.03 614.83, 1198.20 615.75 C 1196.37 616.67, 1195.23 617.29, 1192.43 619.22 C 1189.62 621.14, 1188.02 622.37, 1184.17 625.38 C 1180.32 628.39, 1177.83 630.35, 1173.16 634.27 C 1168.50 638.20, 1165.77 640.68, 1160.84 645.01 C 1155.92 649.34, 1153.14 651.93, 1148.52 655.93 C 1143.90 659.93, 1141.54 662.02, 1137.74 665.01 C 1133.95 667.99, 1132.28 669.06, 1129.54 670.85 C 1126.81 672.64, 1125.75 673.25, 1124.07 673.97 C 1122.39 674.69, 1121.87 674.97, 1121.12 674.47 C 1120.38 673.97, 1120.51 673.46, 1120.33 671.48 C 1120.16 669.49, 1120.10 668.26, 1120.25 664.56 C 1120.39 660.87, 1120.43 658.59, 1121.07 652.99 C 1121.70 647.39, 1122.31 643.91, 1123.43 636.56 C 1124.54 629.20, 1125.37 624.87, 1126.64 616.19 C 1127.91 607.52, 1128.56 602.55, 1129.77 593.19 C 1130.98 583.84, 1131.65 578.47, 1132.69 569.44 C 1133.74 560.40, 1134.33 555.51, 1134.99 548.02 C 1135.65 540.53, 1135.67 537.14, 1136.00 532.00 C 1136.32 526.86, 1136.68 525.15, 1136.62 522.30 C 1136.56 519.46, 1136.18 518.69, 1135.70 517.79 C 1135.22 516.89, 1134.70 516.90, 1134.22 517.79" style="stroke: blue; fill: blue;"/><path d="M 1244.95,578.22 C 1245.14 577.37, 1245.01 576.14, 1244.19 574.92 C 1243.38 573.71, 1242.62 572.75, 1240.85 572.12 C 1239.09 571.50, 1237.70 570.78, 1235.37 571.78 C 1233.05 572.77, 1231.84 573.85, 1229.23 577.11 C 1226.62 580.36, 1225.35 582.69, 1222.32 588.05 C 1219.29 593.41, 1217.33 596.97, 1214.07 603.90 C 1210.80 610.84, 1208.73 615.30, 1205.98 622.75 C 1203.23 630.20, 1201.83 634.39, 1200.30 641.17 C 1198.78 647.96, 1198.33 651.41, 1198.37 656.68 C 1198.41 661.94, 1198.88 664.18, 1200.52 667.50 C 1202.16 670.82, 1203.65 672.16, 1206.55 673.26 C 1209.45 674.36, 1211.51 674.19, 1215.01 672.99 C 1218.52 671.79, 1220.46 670.43, 1224.09 667.28 C 1227.72 664.13, 1229.67 662.15, 1233.17 657.25 C 1236.67 652.34, 1238.56 649.10, 1241.60 642.75 C 1244.63 636.40, 1246.06 632.45, 1248.32 625.51 C 1250.59 618.57, 1251.62 614.67, 1252.92 608.05 C 1254.23 601.43, 1254.58 597.94, 1254.84 592.41 C 1255.10 586.87, 1254.74 584.29, 1254.22 580.38 C 1253.71 576.47, 1253.22 575.02, 1252.26 572.87 C 1251.29 570.73, 1250.42 570.39, 1249.38 569.65 C 1248.34 568.91, 1247.59 569.09, 1247.05 569.16 C 1246.52 569.24, 1246.50 569.67, 1246.72 570.03 C 1246.94 570.40, 1247.55 570.20, 1248.14 570.98 C 1248.73 571.76, 1248.96 571.98, 1249.68 573.93 C 1250.39 575.89, 1251.09 577.08, 1251.72 580.76 C 1252.35 584.44, 1252.93 586.95, 1252.83 592.34 C 1252.72 597.73, 1252.41 601.18, 1251.17 607.71 C 1249.94 614.24, 1248.91 618.12, 1246.66 624.96 C 1244.41 631.81, 1242.96 635.73, 1239.91 641.93 C 1236.86 648.13, 1234.92 651.29, 1231.41 655.96 C 1227.91 660.63, 1225.88 662.43, 1222.41 665.29 C 1218.93 668.14, 1217.03 669.15, 1214.05 670.22 C 1211.06 671.30, 1209.76 671.43, 1207.48 670.67 C 1205.20 669.91, 1204.08 669.24, 1202.65 666.43 C 1201.22 663.63, 1200.47 661.62, 1200.33 656.64 C 1200.20 651.67, 1200.54 648.20, 1201.98 641.54 C 1203.43 634.88, 1204.80 630.70, 1207.55 623.33 C 1210.30 615.96, 1212.38 611.53, 1215.73 604.71 C 1219.08 597.89, 1221.11 594.34, 1224.29 589.23 C 1227.48 584.11, 1229.14 581.97, 1231.65 579.14 C 1234.16 576.30, 1235.26 575.80, 1236.84 575.04 C 1238.41 574.29, 1238.65 574.91, 1239.52 575.37 C 1240.39 575.82, 1240.43 576.56, 1241.18 577.32 C 1241.93 578.08, 1242.51 578.97, 1243.26 579.15 C 1244.02 579.33, 1244.76 579.06, 1244.95 578.22" style="stroke: blue; fill: blue;"/><path d="M 1278.93,568.40 C 1278.42 569.02, 1278.11 569.33, 1277.73 571.58 C 1277.34 573.84, 1277.38 575.35, 1277.01 579.66 C 1276.65 583.97, 1276.48 586.94, 1275.90 593.15 C 1275.33 599.35, 1274.95 603.55, 1274.13 610.67 C 1273.32 617.79, 1272.68 622.01, 1271.81 628.75 C 1270.94 635.49, 1270.44 639.06, 1269.78 644.37 C 1269.12 649.68, 1268.61 652.13, 1268.52 655.29 C 1268.42 658.46, 1268.73 659.63, 1269.31 660.19 C 1269.90 660.75, 1270.58 660.39, 1271.44 658.09 C 1272.31 655.79, 1272.35 653.80, 1273.63 648.68 C 1274.91 643.56, 1275.63 639.78, 1277.84 632.50 C 1280.05 625.22, 1281.40 620.27, 1284.66 612.28 C 1287.93 604.30, 1290.18 599.56, 1294.18 592.56 C 1298.19 585.56, 1300.58 582.12, 1304.69 577.28 C 1308.79 572.44, 1311.09 570.59, 1314.69 568.37 C 1318.28 566.14, 1319.99 565.99, 1322.65 566.16 C 1325.31 566.33, 1326.20 566.91, 1327.98 569.23 C 1329.77 571.55, 1330.60 573.32, 1331.58 577.77 C 1332.55 582.21, 1332.76 585.24, 1332.84 591.46 C 1332.92 597.69, 1332.57 601.80, 1331.97 608.89 C 1331.38 615.97, 1330.71 620.25, 1329.86 626.89 C 1329.02 633.53, 1328.35 636.84, 1327.74 642.09 C 1327.12 647.33, 1326.60 649.77, 1326.78 653.10 C 1326.97 656.44, 1327.81 657.38, 1328.64 658.76 C 1329.48 660.14, 1330.41 659.88, 1330.97 660.01 C 1331.52 660.15, 1331.55 659.84, 1331.41 659.44 C 1331.27 659.04, 1330.63 659.32, 1330.26 658.03 C 1329.88 656.74, 1329.62 656.14, 1329.54 652.99 C 1329.45 649.84, 1329.41 647.47, 1329.85 642.30 C 1330.29 637.13, 1330.93 633.78, 1331.74 627.13 C 1332.54 620.48, 1333.23 616.19, 1333.88 609.05 C 1334.53 601.92, 1334.96 597.81, 1334.99 591.45 C 1335.02 585.09, 1335.00 582.03, 1334.01 577.25 C 1333.03 572.47, 1332.31 570.27, 1330.06 567.56 C 1327.82 564.85, 1326.08 563.89, 1322.79 563.71 C 1319.50 563.53, 1317.48 564.15, 1313.60 566.65 C 1309.72 569.15, 1307.54 571.17, 1303.39 576.20 C 1299.24 581.23, 1296.88 584.70, 1292.84 591.80 C 1288.80 598.89, 1286.55 603.64, 1283.17 611.66 C 1279.79 619.69, 1278.36 624.63, 1275.95 631.90 C 1273.54 639.17, 1272.56 642.90, 1271.11 648.01 C 1269.67 653.12, 1268.98 655.03, 1268.73 657.45 C 1268.48 659.88, 1269.36 660.53, 1269.87 660.14 C 1270.37 659.75, 1270.85 658.62, 1271.26 655.51 C 1271.66 652.41, 1271.41 649.91, 1271.90 644.60 C 1272.38 639.29, 1272.85 635.72, 1273.68 628.98 C 1274.52 622.24, 1275.16 618.02, 1276.08 610.90 C 1276.99 603.79, 1277.44 599.59, 1278.25 593.41 C 1279.05 587.22, 1279.56 584.30, 1280.12 579.99 C 1280.68 575.69, 1280.99 574.19, 1281.02 571.89 C 1281.06 569.59, 1280.72 569.20, 1280.30 568.50 C 1279.88 567.81, 1279.45 567.79, 1278.93 568.40" style="stroke: blue; fill: blue;"/><path d="M 1400.74,576.33 C 1400.80 575.40, 1400.39 574.21, 1399.45 572.79 C 1398.51 571.36, 1397.95 570.28, 1396.05 569.19 C 1394.15 568.10, 1392.65 567.08, 1389.96 567.32 C 1387.27 567.57, 1385.48 568.17, 1382.61 570.40 C 1379.75 572.63, 1378.49 574.46, 1375.65 578.49 C 1372.80 582.52, 1371.15 585.21, 1368.38 590.55 C 1365.61 595.90, 1363.89 599.43, 1361.79 605.23 C 1359.69 611.02, 1358.84 614.47, 1357.89 619.54 C 1356.93 624.61, 1356.55 627.13, 1357.02 630.57 C 1357.49 634.01, 1358.34 635.36, 1360.24 636.76 C 1362.14 638.16, 1363.82 638.45, 1366.52 637.58 C 1369.21 636.72, 1370.87 635.31, 1373.72 632.45 C 1376.58 629.59, 1378.06 627.47, 1380.80 623.27 C 1383.54 619.08, 1384.89 616.42, 1387.42 611.47 C 1389.95 606.52, 1391.31 603.45, 1393.43 598.50 C 1395.55 593.55, 1396.50 590.80, 1398.00 586.72 C 1399.50 582.63, 1400.34 580.74, 1400.93 578.09 C 1401.52 575.44, 1401.34 574.25, 1400.94 573.47 C 1400.53 572.68, 1399.61 572.55, 1398.92 574.17 C 1398.23 575.78, 1398.00 577.24, 1397.48 581.54 C 1396.95 585.84, 1396.91 588.84, 1396.31 595.66 C 1395.71 602.48, 1395.20 606.98, 1394.47 615.64 C 1393.74 624.29, 1393.35 629.37, 1392.66 638.95 C 1391.97 648.53, 1391.75 653.97, 1391.03 663.52 C 1390.32 673.08, 1389.94 678.15, 1389.10 686.73 C 1388.26 695.30, 1387.81 699.34, 1386.84 706.42 C 1385.86 713.49, 1385.37 716.76, 1384.22 722.08 C 1383.08 727.40, 1382.44 729.49, 1381.10 733.01 C 1379.77 736.52, 1379.10 737.67, 1377.55 739.66 C 1376.00 741.64, 1375.28 742.27, 1373.35 742.91 C 1371.43 743.55, 1370.35 743.49, 1367.95 742.85 C 1365.54 742.21, 1364.09 741.48, 1361.32 739.72 C 1358.55 737.95, 1356.77 736.83, 1354.08 734.03 C 1351.39 731.23, 1350.06 729.52, 1347.86 725.70 C 1345.66 721.88, 1344.57 719.05, 1343.07 714.94 C 1341.58 710.83, 1341.25 708.50, 1340.39 705.15 C 1339.52 701.80, 1339.38 699.53, 1338.76 698.18 C 1338.14 696.83, 1337.50 696.87, 1337.27 698.38 C 1337.04 699.90, 1336.99 702.24, 1337.61 705.75 C 1338.23 709.26, 1338.82 711.65, 1340.38 715.92 C 1341.94 720.19, 1343.11 723.07, 1345.40 727.11 C 1347.69 731.14, 1349.03 733.01, 1351.83 736.12 C 1354.63 739.23, 1356.34 740.57, 1359.39 742.65 C 1362.44 744.72, 1364.09 745.86, 1367.10 746.49 C 1370.10 747.12, 1371.85 746.79, 1374.41 745.78 C 1376.97 744.77, 1378.11 743.83, 1379.89 741.43 C 1381.67 739.03, 1382.08 737.58, 1383.30 733.78 C 1384.53 729.98, 1385.01 727.87, 1386.01 722.44 C 1387.02 717.00, 1387.44 713.73, 1388.33 706.61 C 1389.21 699.49, 1389.63 695.45, 1390.43 686.85 C 1391.23 678.25, 1391.60 673.18, 1392.32 663.62 C 1393.03 654.06, 1393.27 648.62, 1394.02 639.05 C 1394.76 629.49, 1395.17 624.42, 1396.06 615.78 C 1396.95 607.15, 1397.58 602.67, 1398.46 595.90 C 1399.35 589.13, 1399.93 586.19, 1400.49 581.92 C 1401.06 577.66, 1401.40 576.32, 1401.29 574.58 C 1401.19 572.85, 1400.69 572.72, 1399.97 573.24 C 1399.26 573.75, 1398.63 574.65, 1397.73 577.17 C 1396.82 579.69, 1396.76 581.77, 1395.47 585.85 C 1394.17 589.93, 1393.28 592.68, 1391.25 597.58 C 1389.21 602.49, 1387.83 605.53, 1385.29 610.36 C 1382.74 615.19, 1381.29 617.78, 1378.52 621.73 C 1375.75 625.69, 1374.05 627.55, 1371.42 630.14 C 1368.80 632.73, 1367.35 633.71, 1365.38 634.69 C 1363.40 635.66, 1362.68 635.91, 1361.55 635.03 C 1360.42 634.14, 1360.01 633.27, 1359.74 630.26 C 1359.47 627.24, 1359.37 624.81, 1360.19 619.95 C 1361.01 615.10, 1361.80 611.63, 1363.85 605.97 C 1365.90 600.31, 1367.63 596.81, 1370.43 591.64 C 1373.24 586.47, 1375.00 583.81, 1377.86 580.13 C 1380.72 576.45, 1382.26 575.02, 1384.74 573.23 C 1387.22 571.44, 1388.42 571.30, 1390.26 571.18 C 1392.11 571.06, 1392.72 571.82, 1393.96 572.63 C 1395.21 573.45, 1395.43 574.30, 1396.48 575.26 C 1397.52 576.21, 1398.34 577.20, 1399.19 577.42 C 1400.04 577.63, 1400.69 577.25, 1400.74 576.33" style="stroke: blue; fill: blue;"/><path d="M 1439.01,507.27 C 1438.66 508.22, 1438.70 508.92, 1438.70 511.90 C 1438.71 514.87, 1439.12 516.60, 1439.04 522.13 C 1438.97 527.67, 1438.69 531.54, 1438.33 539.56 C 1437.97 547.58, 1437.80 552.85, 1437.23 562.24 C 1436.66 571.63, 1436.19 577.06, 1435.47 586.49 C 1434.76 595.93, 1434.37 600.98, 1433.66 609.40 C 1432.95 617.83, 1432.65 622.05, 1431.93 628.63 C 1431.20 635.22, 1430.52 638.09, 1430.04 642.32 C 1429.57 646.54, 1429.25 648.10, 1429.55 649.76 C 1429.86 651.42, 1430.66 651.83, 1431.58 650.63 C 1432.50 649.42, 1432.91 647.72, 1434.16 643.73 C 1435.41 639.73, 1435.94 636.51, 1437.82 630.66 C 1439.70 624.80, 1440.97 620.93, 1443.56 614.47 C 1446.14 608.01, 1447.63 604.15, 1450.76 598.37 C 1453.90 592.59, 1455.84 589.81, 1459.24 585.58 C 1462.63 581.36, 1464.57 579.63, 1467.73 577.25 C 1470.88 574.87, 1472.47 574.24, 1474.99 573.68 C 1477.51 573.11, 1478.49 573.09, 1480.33 574.42 C 1482.17 575.75, 1483.03 576.79, 1484.18 580.32 C 1485.33 583.85, 1485.63 586.55, 1486.07 592.08 C 1486.51 597.61, 1486.51 601.39, 1486.37 607.97 C 1486.24 614.54, 1485.83 618.51, 1485.40 624.96 C 1484.98 631.41, 1484.50 634.82, 1484.25 640.22 C 1483.99 645.62, 1483.79 647.98, 1484.12 651.95 C 1484.44 655.92, 1484.91 657.48, 1485.86 660.07 C 1486.81 662.66, 1487.64 663.57, 1488.86 664.91 C 1490.09 666.26, 1490.90 666.43, 1491.99 666.81 C 1493.08 667.19, 1493.62 667.01, 1494.30 666.83 C 1494.98 666.65, 1495.27 666.29, 1495.40 665.90 C 1495.53 665.51, 1495.20 665.10, 1494.94 664.89 C 1494.68 664.67, 1494.50 664.91, 1494.11 664.83 C 1493.71 664.75, 1493.59 664.84, 1492.97 664.50 C 1492.34 664.16, 1491.83 664.22, 1490.99 663.12 C 1490.15 662.02, 1489.64 661.27, 1488.76 658.99 C 1487.89 656.70, 1487.10 655.43, 1486.61 651.69 C 1486.13 647.95, 1486.20 645.62, 1486.36 640.30 C 1486.51 634.98, 1486.96 631.54, 1487.39 625.09 C 1487.81 618.63, 1488.25 614.65, 1488.46 608.02 C 1488.68 601.39, 1488.79 597.63, 1488.46 591.92 C 1488.14 586.21, 1488.13 583.42, 1486.83 579.45 C 1485.53 575.49, 1484.45 573.80, 1481.96 572.10 C 1479.48 570.39, 1477.53 570.26, 1474.40 570.92 C 1471.26 571.58, 1469.62 572.70, 1466.27 575.39 C 1462.93 578.07, 1461.09 579.92, 1457.66 584.34 C 1454.23 588.75, 1452.30 591.60, 1449.11 597.47 C 1445.92 603.35, 1444.44 607.23, 1441.70 613.71 C 1438.96 620.18, 1437.53 624.01, 1435.43 629.84 C 1433.32 635.67, 1432.26 638.82, 1431.18 642.86 C 1430.10 646.91, 1430.02 648.69, 1430.03 650.08 C 1430.03 651.48, 1430.78 651.34, 1431.22 649.83 C 1431.67 648.33, 1431.80 646.77, 1432.26 642.56 C 1432.73 638.36, 1432.99 635.40, 1433.55 628.79 C 1434.11 622.18, 1434.39 617.96, 1435.04 609.52 C 1435.70 601.08, 1436.08 596.03, 1436.81 586.60 C 1437.54 577.16, 1438.03 571.72, 1438.69 562.34 C 1439.35 552.95, 1439.58 547.69, 1440.13 539.66 C 1440.68 531.64, 1441.10 527.79, 1441.43 522.22 C 1441.76 516.65, 1441.98 514.82, 1441.78 511.79 C 1441.59 508.77, 1441.01 508.01, 1440.46 507.11 C 1439.90 506.20, 1439.36 506.31, 1439.01 507.27" style="stroke: blue; fill: blue;"/><path d="M 1557.75,582.67 C 1558.57 582.46, 1559.35 581.88, 1560.35 580.64 C 1561.34 579.40, 1562.08 578.41, 1562.72 576.47 C 1563.36 574.54, 1563.70 573.08, 1563.54 570.96 C 1563.39 568.84, 1563.07 567.60, 1561.92 565.86 C 1560.78 564.12, 1559.96 563.06, 1557.83 562.26 C 1555.71 561.46, 1554.28 560.96, 1551.30 561.86 C 1548.32 562.76, 1546.54 563.77, 1542.94 566.76 C 1539.34 569.76, 1537.26 571.72, 1533.30 576.82 C 1529.34 581.92, 1527.03 585.41, 1523.13 592.25 C 1519.24 599.10, 1516.99 603.50, 1513.81 611.05 C 1510.64 618.60, 1509.17 623.01, 1507.26 630.01 C 1505.35 637.01, 1504.77 640.59, 1504.25 646.04 C 1503.73 651.49, 1503.82 653.77, 1504.66 657.25 C 1505.50 660.73, 1506.48 661.92, 1508.43 663.45 C 1510.39 664.99, 1511.85 665.39, 1514.45 664.90 C 1517.05 664.41, 1518.56 663.64, 1521.43 660.99 C 1524.30 658.35, 1525.74 656.38, 1528.79 651.68 C 1531.84 646.98, 1533.35 643.83, 1536.68 637.49 C 1540.01 631.15, 1542.00 627.03, 1545.42 619.98 C 1548.85 612.94, 1550.84 608.58, 1553.81 602.26 C 1556.78 595.93, 1558.27 592.58, 1560.28 588.35 C 1562.28 584.11, 1563.14 582.36, 1563.82 581.07 C 1564.50 579.78, 1563.82 579.87, 1563.66 581.90 C 1563.50 583.93, 1563.35 586.18, 1563.03 591.22 C 1562.71 596.26, 1562.45 600.20, 1562.07 607.11 C 1561.69 614.02, 1561.35 618.59, 1561.12 625.77 C 1560.90 632.94, 1560.69 636.94, 1560.94 643.00 C 1561.19 649.05, 1561.38 651.81, 1562.37 656.05 C 1563.36 660.29, 1564.07 661.92, 1565.89 664.18 C 1567.70 666.45, 1569.18 666.80, 1571.45 667.40 C 1573.73 667.99, 1575.35 667.71, 1577.26 667.15 C 1579.17 666.60, 1580.39 665.46, 1581.00 664.64 C 1581.60 663.83, 1581.18 663.21, 1580.28 663.08 C 1579.38 662.95, 1578.15 663.71, 1576.51 664.01 C 1574.87 664.31, 1573.79 664.88, 1572.09 664.57 C 1570.40 664.26, 1569.52 664.27, 1568.02 662.45 C 1566.52 660.64, 1565.62 659.41, 1564.60 655.50 C 1563.57 651.59, 1563.21 648.84, 1562.90 642.91 C 1562.59 636.97, 1562.77 632.97, 1563.05 625.84 C 1563.34 618.71, 1563.81 614.15, 1564.33 607.26 C 1564.86 600.37, 1565.36 596.49, 1565.66 591.38 C 1565.95 586.26, 1566.41 583.95, 1565.82 581.68 C 1565.22 579.41, 1564.19 578.91, 1562.68 580.05 C 1561.18 581.19, 1560.39 583.10, 1558.28 587.38 C 1556.18 591.67, 1555.04 595.13, 1552.16 601.49 C 1549.27 607.86, 1547.29 612.20, 1543.86 619.22 C 1540.42 626.23, 1538.39 630.35, 1534.98 636.57 C 1531.56 642.79, 1529.92 645.90, 1526.79 650.33 C 1523.67 654.76, 1521.95 656.36, 1519.35 658.72 C 1516.74 661.07, 1515.67 661.53, 1513.78 662.11 C 1511.89 662.69, 1511.25 662.70, 1509.90 661.61 C 1508.55 660.52, 1507.79 659.76, 1507.04 656.67 C 1506.30 653.59, 1505.81 651.45, 1506.17 646.20 C 1506.54 640.95, 1507.04 637.35, 1508.87 630.44 C 1510.69 623.54, 1512.14 619.14, 1515.30 611.68 C 1518.45 604.22, 1520.72 599.84, 1524.65 593.13 C 1528.58 586.42, 1530.95 582.98, 1534.96 578.15 C 1538.96 573.32, 1541.18 571.51, 1544.67 569.00 C 1548.16 566.49, 1550.01 566.32, 1552.42 565.59 C 1554.83 564.87, 1555.45 564.96, 1556.72 565.37 C 1557.99 565.78, 1558.29 566.52, 1558.77 567.65 C 1559.25 568.77, 1559.24 569.52, 1559.11 570.99 C 1558.98 572.47, 1558.57 573.48, 1558.11 575.04 C 1557.66 576.60, 1557.22 577.46, 1556.85 578.80 C 1556.49 580.14, 1556.09 580.95, 1556.27 581.72 C 1556.45 582.50, 1556.94 582.89, 1557.75 582.67" style="stroke: blue; fill: blue;"/><path d="M 1636.85,583.19 C 1636.93 582.24, 1636.76 580.94, 1635.71 579.39 C 1634.67 577.84, 1633.70 576.61, 1631.64 575.45 C 1629.57 574.29, 1628.23 573.51, 1625.39 573.59 C 1622.54 573.67, 1620.92 573.84, 1617.42 575.84 C 1613.92 577.84, 1611.79 579.27, 1607.90 583.60 C 1604.01 587.93, 1601.72 591.01, 1597.97 597.49 C 1594.21 603.96, 1592.13 608.38, 1589.12 615.98 C 1586.11 623.58, 1584.45 628.25, 1582.92 635.48 C 1581.38 642.71, 1581.17 646.53, 1581.44 652.13 C 1581.72 657.73, 1582.40 660.13, 1584.29 663.48 C 1586.19 666.83, 1587.76 667.83, 1590.94 668.88 C 1594.11 669.93, 1596.30 669.75, 1600.18 668.74 C 1604.06 667.73, 1606.32 666.77, 1610.33 663.82 C 1614.34 660.88, 1616.46 658.79, 1620.22 654.03 C 1623.99 649.26, 1625.92 646.31, 1629.15 640.00 C 1632.39 633.70, 1634.03 629.80, 1636.40 622.52 C 1638.77 615.24, 1639.80 610.84, 1640.99 603.60 C 1642.18 596.36, 1642.42 592.38, 1642.35 586.32 C 1642.29 580.26, 1641.86 577.56, 1640.66 573.32 C 1639.46 569.08, 1638.56 567.46, 1636.36 565.11 C 1634.16 562.75, 1632.45 562.20, 1629.66 561.53 C 1626.88 560.87, 1625.05 561.19, 1622.44 561.77 C 1619.83 562.35, 1618.48 563.21, 1616.61 564.42 C 1614.75 565.63, 1613.63 566.86, 1613.11 567.82 C 1612.59 568.78, 1612.97 569.25, 1614.01 569.22 C 1615.04 569.18, 1616.42 568.38, 1618.29 567.64 C 1620.16 566.90, 1621.21 566.12, 1623.36 565.53 C 1625.51 564.94, 1626.85 564.37, 1629.05 564.67 C 1631.26 564.97, 1632.48 565.18, 1634.38 567.03 C 1636.28 568.89, 1637.32 570.09, 1638.54 573.96 C 1639.76 577.82, 1640.33 580.48, 1640.49 586.36 C 1640.65 592.23, 1640.46 596.21, 1639.32 603.33 C 1638.18 610.46, 1637.16 614.83, 1634.81 621.99 C 1632.45 629.16, 1630.78 633.02, 1627.54 639.17 C 1624.30 645.31, 1622.32 648.18, 1618.59 652.71 C 1614.85 657.23, 1612.69 659.11, 1608.86 661.78 C 1605.04 664.45, 1602.90 665.15, 1599.47 666.07 C 1596.04 666.99, 1594.35 667.11, 1591.71 666.37 C 1589.06 665.63, 1587.91 665.24, 1586.23 662.37 C 1584.55 659.50, 1583.66 657.33, 1583.32 652.02 C 1582.99 646.71, 1583.10 642.91, 1584.56 635.83 C 1586.03 628.74, 1587.67 624.08, 1590.67 616.60 C 1593.67 609.12, 1595.79 604.72, 1599.57 598.44 C 1603.36 592.15, 1605.73 589.16, 1609.59 585.18 C 1613.45 581.20, 1615.72 580.10, 1618.87 578.55 C 1622.03 577.00, 1623.24 577.31, 1625.37 577.41 C 1627.50 577.52, 1628.04 578.17, 1629.51 579.08 C 1630.99 579.99, 1631.56 580.95, 1632.72 581.97 C 1633.89 582.98, 1634.50 583.90, 1635.33 584.14 C 1636.15 584.39, 1636.77 584.14, 1636.85 583.19" style="stroke: blue; fill: blue;"/><path d="M 1819.51,514.10 C 1819.22 513.21, 1818.47 512.22, 1817.00 511.15 C 1815.54 510.08, 1814.54 509.45, 1812.19 508.73 C 1809.84 508.00, 1808.34 507.15, 1805.25 507.53 C 1802.17 507.90, 1800.58 508.55, 1796.76 510.60 C 1792.95 512.65, 1790.89 513.93, 1786.20 517.78 C 1781.52 521.62, 1778.81 523.95, 1773.34 529.84 C 1767.87 535.73, 1764.54 539.39, 1758.87 547.22 C 1753.19 555.05, 1750.04 559.78, 1744.97 569.00 C 1739.90 578.23, 1737.33 583.51, 1733.51 593.35 C 1729.70 603.19, 1727.97 608.78, 1725.89 618.22 C 1723.82 627.65, 1723.21 632.44, 1723.15 640.52 C 1723.08 648.61, 1723.81 652.32, 1725.57 658.65 C 1727.33 664.98, 1728.67 667.70, 1731.94 672.17 C 1735.21 676.65, 1737.33 678.47, 1741.92 681.03 C 1746.50 683.58, 1749.22 684.56, 1754.86 684.95 C 1760.50 685.34, 1764.38 684.50, 1770.11 682.97 C 1775.84 681.44, 1778.97 679.60, 1783.51 677.32 C 1788.05 675.04, 1791.13 673.00, 1792.82 671.56 C 1794.52 670.12, 1794.04 669.36, 1791.98 670.13 C 1789.93 670.90, 1787.05 673.24, 1782.56 675.39 C 1778.08 677.54, 1775.06 679.38, 1769.55 680.88 C 1764.03 682.39, 1760.33 683.22, 1754.99 682.91 C 1749.65 682.60, 1747.18 681.68, 1742.85 679.33 C 1738.53 676.97, 1736.52 675.34, 1733.36 671.12 C 1730.20 666.91, 1728.82 664.36, 1727.04 658.24 C 1725.26 652.12, 1724.47 648.48, 1724.48 640.53 C 1724.48 632.58, 1725.05 627.83, 1727.07 618.47 C 1729.09 609.12, 1730.81 603.55, 1734.60 593.77 C 1738.39 583.99, 1740.95 578.73, 1746.02 569.59 C 1751.10 560.44, 1754.26 555.75, 1759.97 548.03 C 1765.67 540.30, 1769.03 536.69, 1774.54 530.97 C 1780.05 525.26, 1782.82 523.01, 1787.52 519.45 C 1792.22 515.89, 1794.42 514.78, 1798.03 513.19 C 1801.64 511.61, 1802.99 511.61, 1805.57 511.54 C 1808.15 511.46, 1809.01 512.24, 1810.94 512.82 C 1812.86 513.41, 1813.68 513.92, 1815.19 514.47 C 1816.69 515.02, 1817.61 515.65, 1818.48 515.58 C 1819.34 515.50, 1819.80 514.98, 1819.51 514.10" style="stroke: blue; fill: blue;"/><path d="M 1849.55,512.60 C 1848.86 513.68, 1848.29 514.67, 1847.57 518.35 C 1846.85 522.02, 1846.61 524.52, 1845.94 530.98 C 1845.28 537.45, 1844.82 541.77, 1844.25 550.66 C 1843.68 559.54, 1843.54 565.20, 1843.09 575.42 C 1842.65 585.63, 1842.49 591.66, 1842.02 601.75 C 1841.55 611.85, 1841.33 617.17, 1840.75 625.90 C 1840.17 634.64, 1839.74 638.76, 1839.13 645.43 C 1838.52 652.10, 1838.07 655.05, 1837.69 659.25 C 1837.32 663.44, 1837.05 665.06, 1837.25 666.42 C 1837.46 667.78, 1838.14 667.77, 1838.70 666.06 C 1839.26 664.35, 1839.43 662.58, 1840.06 657.89 C 1840.68 653.19, 1840.72 649.55, 1841.83 642.58 C 1842.93 635.61, 1843.59 630.84, 1845.60 623.03 C 1847.61 615.21, 1849.04 610.64, 1851.86 603.49 C 1854.68 596.35, 1856.50 592.80, 1859.70 587.29 C 1862.90 581.78, 1864.74 579.39, 1867.87 575.92 C 1870.99 572.45, 1872.62 571.27, 1875.32 569.94 C 1878.02 568.62, 1879.11 568.55, 1881.36 569.31 C 1883.60 570.08, 1884.61 570.86, 1886.55 573.76 C 1888.48 576.67, 1889.52 578.91, 1891.05 583.86 C 1892.58 588.80, 1893.26 592.15, 1894.18 598.48 C 1895.10 604.80, 1895.37 608.75, 1895.67 615.49 C 1895.97 622.23, 1895.83 626.00, 1895.68 632.18 C 1895.53 638.36, 1895.22 641.42, 1894.91 646.38 C 1894.60 651.34, 1894.24 653.59, 1894.14 656.98 C 1894.04 660.36, 1894.18 661.47, 1894.40 663.31 C 1894.63 665.15, 1894.88 665.45, 1895.27 666.17 C 1895.65 666.90, 1896.01 666.85, 1896.31 666.94 C 1896.61 667.02, 1896.70 666.80, 1896.77 666.58 C 1896.84 666.36, 1896.61 666.53, 1896.66 665.85 C 1896.72 665.17, 1896.99 664.95, 1897.05 663.19 C 1897.12 661.42, 1896.96 660.36, 1896.97 657.02 C 1896.98 653.68, 1896.98 651.44, 1897.11 646.48 C 1897.24 641.52, 1897.53 638.43, 1897.62 632.21 C 1897.71 626.00, 1897.85 622.21, 1897.58 615.40 C 1897.31 608.60, 1897.10 604.64, 1896.26 598.19 C 1895.42 591.74, 1894.88 588.36, 1893.40 583.16 C 1891.92 577.96, 1891.10 575.50, 1888.86 572.21 C 1886.62 568.91, 1885.13 567.59, 1882.20 566.69 C 1879.27 565.79, 1877.39 566.12, 1874.21 567.70 C 1871.04 569.27, 1869.53 570.83, 1866.33 574.57 C 1863.13 578.32, 1861.40 580.77, 1858.20 586.43 C 1855.01 592.10, 1853.21 595.67, 1850.35 602.90 C 1847.50 610.13, 1846.06 614.72, 1843.92 622.58 C 1841.78 630.44, 1840.98 635.21, 1839.65 642.20 C 1838.33 649.19, 1837.89 652.80, 1837.30 657.53 C 1836.72 662.27, 1836.46 664.07, 1836.72 665.89 C 1836.98 667.71, 1837.99 667.93, 1838.62 666.64 C 1839.25 665.35, 1839.46 663.67, 1839.87 659.45 C 1840.29 655.23, 1840.26 652.25, 1840.70 645.55 C 1841.13 638.86, 1841.55 634.73, 1842.06 625.99 C 1842.58 617.24, 1842.80 611.91, 1843.27 601.81 C 1843.74 591.71, 1843.91 585.69, 1844.42 575.48 C 1844.94 565.27, 1845.14 559.62, 1845.85 550.77 C 1846.57 541.92, 1847.15 537.62, 1848.00 531.23 C 1848.85 524.83, 1849.52 522.46, 1850.12 518.81 C 1850.72 515.15, 1851.11 514.20, 1850.99 512.96 C 1850.88 511.72, 1850.23 511.52, 1849.55 512.60" style="stroke: blue; fill: blue;"/><path d="M 1919.72,608.30 C 1919.94 609.02, 1920.40 609.82, 1921.68 610.46 C 1922.95 611.11, 1923.98 611.44, 1926.10 611.51 C 1928.22 611.59, 1929.64 611.65, 1932.27 610.84 C 1934.91 610.04, 1936.42 609.24, 1939.28 607.48 C 1942.14 605.71, 1943.68 604.59, 1946.56 602.04 C 1949.43 599.48, 1950.97 597.97, 1953.68 594.70 C 1956.38 591.43, 1957.78 589.46, 1960.08 585.68 C 1962.38 581.90, 1963.56 579.59, 1965.19 575.80 C 1966.81 572.01, 1967.58 570.12, 1968.21 566.75 C 1968.84 563.37, 1968.99 561.55, 1968.33 558.94 C 1967.68 556.33, 1966.90 555.01, 1964.93 553.70 C 1962.95 552.40, 1961.41 551.74, 1958.48 552.42 C 1955.54 553.09, 1953.80 554.11, 1950.26 557.08 C 1946.71 560.04, 1944.59 562.14, 1940.76 567.23 C 1936.94 572.32, 1934.66 575.62, 1931.12 582.53 C 1927.59 589.44, 1925.67 593.85, 1923.09 601.78 C 1920.51 609.72, 1919.39 614.32, 1918.23 622.21 C 1917.07 630.10, 1916.95 634.28, 1917.29 641.22 C 1917.62 648.16, 1918.25 651.57, 1919.91 656.90 C 1921.58 662.23, 1922.93 664.45, 1925.63 667.87 C 1928.33 671.29, 1930.01 672.51, 1933.41 674.00 C 1936.82 675.49, 1938.85 675.89, 1942.65 675.32 C 1946.45 674.76, 1948.53 673.81, 1952.42 671.17 C 1956.30 668.53, 1958.17 666.55, 1962.07 662.13 C 1965.98 657.71, 1968.12 655.00, 1971.92 649.07 C 1975.73 643.14, 1977.61 639.53, 1981.09 632.49 C 1984.57 625.46, 1986.23 621.18, 1989.32 613.88 C 1992.42 606.58, 1993.96 602.73, 1996.58 595.98 C 1999.20 589.23, 2000.27 585.60, 2002.41 580.12 C 2004.56 574.65, 2005.79 572.09, 2007.32 568.63 C 2008.84 565.17, 2009.54 563.73, 2010.05 562.81 C 2010.57 561.89, 2010.02 561.88, 2009.88 564.03 C 2009.74 566.19, 2009.66 568.37, 2009.35 573.60 C 2009.04 578.83, 2008.79 582.81, 2008.32 590.18 C 2007.85 597.55, 2007.44 602.40, 2007.01 610.46 C 2006.58 618.51, 2006.43 623.17, 2006.17 630.47 C 2005.92 637.77, 2005.89 641.35, 2005.74 646.95 C 2005.59 652.55, 2005.31 654.87, 2005.42 658.45 C 2005.54 662.04, 2005.59 663.43, 2006.32 664.87 C 2007.04 666.32, 2007.98 666.69, 2009.06 665.68 C 2010.14 664.67, 2010.73 663.44, 2011.71 659.81 C 2012.68 656.18, 2012.80 653.49, 2013.94 647.53 C 2015.08 641.56, 2015.73 637.44, 2017.40 629.99 C 2019.06 622.53, 2019.97 617.83, 2022.27 610.26 C 2024.58 602.69, 2026.02 598.59, 2028.91 592.12 C 2031.81 585.66, 2033.62 582.50, 2036.73 577.95 C 2039.84 573.40, 2041.81 571.72, 2044.47 569.38 C 2047.13 567.04, 2048.22 566.45, 2050.04 566.27 C 2051.86 566.09, 2052.25 566.37, 2053.57 568.50 C 2054.88 570.62, 2055.59 572.26, 2056.62 576.89 C 2057.65 581.52, 2058.09 584.99, 2058.72 591.65 C 2059.35 598.32, 2059.52 602.69, 2059.76 610.19 C 2060.01 617.69, 2059.96 621.90, 2059.96 629.15 C 2059.96 636.40, 2059.78 640.17, 2059.78 646.45 C 2059.78 652.73, 2059.66 655.57, 2059.94 660.56 C 2060.22 665.55, 2060.39 667.72, 2061.18 671.40 C 2061.97 675.09, 2062.41 677.16, 2063.90 679.00 C 2065.38 680.84, 2067.58 680.49, 2068.62 680.60 C 2069.66 680.70, 2069.65 680.13, 2069.10 679.52 C 2068.56 678.92, 2066.96 679.31, 2065.89 677.58 C 2064.83 675.84, 2064.55 674.27, 2063.78 670.84 C 2063.00 667.40, 2062.47 665.28, 2062.03 660.40 C 2061.59 655.53, 2061.65 652.69, 2061.58 646.44 C 2061.51 640.19, 2061.67 636.41, 2061.67 629.15 C 2061.66 621.89, 2061.73 617.68, 2061.57 610.14 C 2061.40 602.61, 2061.32 598.24, 2060.83 591.48 C 2060.35 584.72, 2060.11 581.29, 2059.14 576.36 C 2058.17 571.43, 2057.82 569.31, 2055.97 566.84 C 2054.12 564.37, 2052.49 563.86, 2049.87 564.01 C 2047.26 564.16, 2045.84 565.01, 2042.90 567.59 C 2039.95 570.17, 2038.25 572.12, 2035.15 576.89 C 2032.04 581.66, 2030.28 584.87, 2027.39 591.45 C 2024.50 598.02, 2023.05 602.15, 2020.69 609.77 C 2018.33 617.40, 2017.40 622.11, 2015.57 629.56 C 2013.74 637.01, 2012.94 641.11, 2011.53 647.01 C 2010.13 652.91, 2009.33 655.47, 2008.55 659.04 C 2007.77 662.61, 2007.74 663.79, 2007.63 664.88 C 2007.52 665.96, 2007.93 665.77, 2008.00 664.47 C 2008.08 663.17, 2008.07 661.89, 2008.00 658.39 C 2007.94 654.89, 2007.69 652.54, 2007.66 646.97 C 2007.63 641.40, 2007.64 637.81, 2007.86 630.52 C 2008.07 623.24, 2008.22 618.59, 2008.73 610.56 C 2009.24 602.52, 2009.76 597.69, 2010.40 590.34 C 2011.03 582.98, 2011.54 579.07, 2011.92 573.77 C 2012.30 568.46, 2012.86 566.21, 2012.31 563.81 C 2011.76 561.41, 2010.61 561.02, 2009.16 561.77 C 2007.72 562.53, 2006.77 564.05, 2005.06 567.59 C 2003.36 571.13, 2002.64 573.90, 2000.64 579.46 C 1998.64 585.02, 1997.61 588.64, 1995.06 595.40 C 1992.51 602.16, 1990.97 606.00, 1987.88 613.27 C 1984.80 620.54, 1983.12 624.80, 1979.63 631.76 C 1976.13 638.72, 1974.22 642.28, 1970.39 648.07 C 1966.56 653.85, 1964.35 656.49, 1960.48 660.69 C 1956.60 664.90, 1954.67 666.69, 1951.03 669.08 C 1947.38 671.47, 1945.57 672.14, 1942.25 672.65 C 1938.93 673.16, 1937.40 672.87, 1934.42 671.64 C 1931.45 670.40, 1929.90 669.54, 1927.36 666.48 C 1924.81 663.42, 1923.38 661.40, 1921.69 656.33 C 1920.00 651.26, 1919.30 647.92, 1918.91 641.14 C 1918.52 634.36, 1918.60 630.21, 1919.73 622.43 C 1920.87 614.66, 1921.98 610.09, 1924.57 602.27 C 1927.16 594.45, 1929.09 590.08, 1932.67 583.34 C 1936.25 576.60, 1938.60 573.36, 1942.47 568.55 C 1946.34 563.74, 1948.65 561.84, 1952.02 559.28 C 1955.39 556.72, 1957.05 556.42, 1959.33 555.75 C 1961.62 555.09, 1962.27 555.19, 1963.44 555.96 C 1964.61 556.72, 1964.88 557.55, 1965.18 559.59 C 1965.49 561.63, 1965.50 563.13, 1964.95 566.15 C 1964.40 569.16, 1963.91 571.04, 1962.44 574.65 C 1960.97 578.25, 1959.83 580.56, 1957.62 584.18 C 1955.41 587.80, 1954.03 589.70, 1951.38 592.76 C 1948.73 595.81, 1947.20 597.21, 1944.38 599.45 C 1941.56 601.69, 1939.97 602.58, 1937.29 603.96 C 1934.61 605.35, 1933.23 605.75, 1930.97 606.36 C 1928.72 606.96, 1927.69 606.86, 1926.02 607.00 C 1924.36 607.14, 1923.74 607.08, 1922.64 607.05 C 1921.55 607.02, 1921.14 606.61, 1920.56 606.86 C 1919.97 607.11, 1919.49 607.58, 1919.72 608.30" style="stroke: blue; fill: blue;"/></svg>